# xmcd
#
# Track frame offsets:
#	150
#	12450
#	33750
#	49800
#	60525
#	73875
#	83025
#	92175
#	104850
#	118050
#	133200
#	145575
#	154725
#	176475
#	187500
#	201450
#	215625
#	229200
#	240525
#	253200
#
# Disc length: 3564 seconds
#
# Revision: 0
# Processed by: cddbd v1.5.2PL0 Copyright (c) Steve Scherf et al.
# Submitted via: EZCDAudioConverter 8.3.2.1
#
DISCID=270dea14
DTITLE=Tennessee Ernie Ford - Tennessee Ernie Ford - Golden Star
DYEAR=2019
DGENRE=Country
TTITLE0=Take Me Home Country Roads
TTITLE1=Rainy Night In Georgia
TTITLE2=What A Friend We Have In Jesus
TTITLE3=Just a Closer Walk with Thee
TTITLE4=There Goes My Everything
TTITLE5=My Favorite Things
TTITLE6=Bringing In The Sheaves
TTITLE7=Dark As A Dungeon
TTITLE8=The Old Rugged Cross
TTITLE9=Peace In The Valley
TTITLE10=Precious Memories
TTITLE11=Blessed Assurance
TTITLE12=Sixteen Tons
TTITLE13=Since You’ve Been Gone
TTITLE14=Holy, Holy, Holy
TTITLE15=Sleep, My Little Lord Jesus
TTITLE16=Streamlined Cannonball
TTITLE17=Have You Seen Her
TTITLE18=Ain`t Goin` Down In The Ground Before My Time
TTITLE19=It Came Upon A Midnight Clear
EXTD=
EXTT0=
EXTT1=
EXTT2=
EXTT3=
EXTT4=
EXTT5=
EXTT6=
EXTT7=
EXTT8=
EXTT9=
EXTT10=
EXTT11=
EXTT12=
EXTT13=
EXTT14=
EXTT15=
EXTT16=
EXTT17=
EXTT18=
EXTT19=
PLAYORDER=
